<svg width="1501" height="392" viewBox="0 0 1501 392" fill="none" xmlns="http://www.w3.org/2000/svg">
<path d="M463.741 174.434H427.823V348.466H463.741V174.434Z" fill="#F8F5F3"/>
<path d="M521.772 268.44C469.942 268.44 427.823 226.321 427.823 174.491C427.823 122.662 469.942 80.543 521.772 80.543C573.602 80.543 615.72 122.662 615.72 174.491C615.72 226.321 573.602 268.44 521.772 268.44ZM521.772 116.461C489.773 116.461 463.741 142.493 463.741 174.491C463.741 206.49 489.773 232.522 521.772 232.522C553.771 232.522 579.802 206.49 579.802 174.491C579.802 142.493 553.771 116.461 521.772 116.461Z" fill="#F8F5F3"/>
<path d="M1198.11 268.44C1146.28 268.44 1104.16 226.321 1104.16 174.491C1104.16 122.662 1146.28 80.543 1198.11 80.543C1249.94 80.543 1292.06 122.662 1292.06 174.491C1292.06 226.321 1249.94 268.44 1198.11 268.44ZM1198.11 116.461C1166.11 116.461 1140.08 142.493 1140.08 174.491C1140.08 206.49 1166.11 232.522 1198.11 232.522C1230.11 232.522 1256.14 206.49 1256.14 174.491C1256.14 142.493 1230.11 116.461 1198.11 116.461Z" fill="#F8F5F3"/>
<path d="M1092.77 266.568H1074.81C1032.81 266.568 998.589 232.405 998.589 190.345V0.400391H1034.51V190.345C1034.51 212.516 1052.58 230.592 1074.75 230.592H1092.71V266.51L1092.77 266.568Z" fill="#F8F5F3"/>
<path d="M898.727 266.568H862.809V156.708C862.809 114.706 896.972 80.4844 939.032 80.4844H956.991V116.402H939.032C916.861 116.402 898.785 134.478 898.785 156.649V266.509L898.727 266.568Z" fill="#F8F5F3"/>
<path d="M730.397 268.44C678.568 268.44 636.449 226.321 636.449 174.491C636.449 122.662 678.568 80.543 730.397 80.543C782.227 80.543 824.346 122.662 824.346 174.491C824.346 226.321 782.227 268.44 730.397 268.44ZM730.397 116.461C698.399 116.461 672.367 142.493 672.367 174.491C672.367 206.49 698.399 232.522 730.397 232.522C762.396 232.522 788.428 206.49 788.428 174.491C788.428 142.493 762.396 116.461 730.397 116.461Z" fill="#F8F5F3"/>
<path d="M824.326 82.3555H788.408V266.625H824.326V82.3555Z" fill="#F8F5F3"/>
<path d="M1406.61 268.44C1354.78 268.44 1312.66 226.321 1312.66 174.491C1312.66 122.662 1354.78 80.543 1406.61 80.543C1458.44 80.543 1500.56 122.662 1500.56 174.491C1500.56 226.321 1458.44 268.44 1406.61 268.44ZM1406.61 116.461C1374.61 116.461 1348.58 142.493 1348.58 174.491C1348.58 206.49 1374.61 232.522 1406.61 232.522C1438.61 232.522 1464.64 206.49 1464.64 174.491C1464.64 142.493 1438.61 116.461 1406.61 116.461Z" fill="#F8F5F3"/>
<path d="M1500.54 82.3555H1464.62V266.625H1500.54V82.3555Z" fill="#F8F5F3"/>
<path d="M239.463 0.458774H43.9022C19.9764 0.458774 0.554688 19.8803 0.554688 43.8061V209.766V275.635C0.554688 339.867 52.6183 391.93 116.85 391.93H127.145C135.16 391.93 141.653 385.437 141.653 377.423V276.045C141.653 268.03 148.147 261.537 156.161 261.537H239.463C263.389 261.537 282.809 242.116 282.809 218.19V43.6891C282.809 19.7632 263.389 0.341797 239.463 0.341797V0.458774Z" fill="#F8F5F3"/>
</svg>

